<svg width="326" height="21" viewBox="0 0 326 21" fill="none" xmlns="http://www.w3.org/2000/svg">
<path d="M0.292969 3.37402V1.71387H13.3789V3.37402H7.8125V20H5.85938V3.37402H0.292969ZM21.1621 20V1.71387H23.1152V9.77051H32.0996V1.71387H34.0527V20H32.0996V11.4062H23.1152V20H21.1621ZM44.1309 20V1.71387H55.5566V3.37402H46.084V9.72168H54.6289V11.3574H46.084V18.3398H55.752V20H44.1309ZM72.8564 0.688477H76.3477L79.5947 11.8457C80.3434 14.7428 80.7585 16.3379 80.8398 16.6309L80.9375 16.6553C81.3281 15.1579 81.7432 13.5547 82.1826 11.8457L85.4297 0.688477H88.9209L82.6953 20H79.082L72.8564 0.688477ZM96.0938 20V0.688477H99.3164V20H96.0938ZM107.1 15.874L109.932 14.9219C110.387 15.7357 111.047 16.403 111.909 16.9238C112.772 17.4284 113.724 17.6807 114.766 17.6807C115.84 17.6807 116.702 17.4202 117.354 16.8994C118.005 16.3786 118.33 15.7031 118.33 14.873C118.33 13.9941 117.98 13.3105 117.28 12.8223C116.597 12.334 115.588 11.862 114.253 11.4062C112.349 10.7715 111.063 10.2669 110.396 9.89258C108.654 8.89974 107.783 7.45931 107.783 5.57129C107.783 3.97624 108.41 2.69043 109.663 1.71387C110.916 0.737305 112.552 0.249023 114.57 0.249023C116.23 0.249023 117.646 0.639648 118.818 1.4209C120.007 2.18587 120.869 3.17057 121.406 4.375L118.696 5.27832C117.655 3.76465 116.271 3.00781 114.546 3.00781C113.488 3.00781 112.65 3.24382 112.031 3.71582C111.413 4.18783 111.104 4.80632 111.104 5.57129C111.104 5.79915 111.128 6.01888 111.177 6.23047C111.226 6.42578 111.323 6.61296 111.47 6.79199C111.616 6.97103 111.746 7.12565 111.86 7.25586C111.974 7.38607 112.161 7.52441 112.422 7.6709C112.682 7.81738 112.886 7.93132 113.032 8.0127C113.195 8.09408 113.455 8.19987 113.813 8.33008C114.172 8.46029 114.424 8.5498 114.57 8.59863C114.733 8.64746 115.026 8.74512 115.449 8.8916C115.872 9.02181 116.157 9.11133 116.304 9.16016C117.052 9.4043 117.712 9.66471 118.281 9.94141C118.851 10.2181 119.404 10.5762 119.941 11.0156C120.495 11.4388 120.918 11.9678 121.211 12.6025C121.504 13.2373 121.65 13.9535 121.65 14.751C121.65 16.5576 120.999 17.9574 119.697 18.9502C118.411 19.943 116.743 20.4395 114.692 20.4395C112.918 20.4395 111.364 20.0326 110.029 19.2188C108.695 18.3887 107.718 17.2738 107.1 15.874ZM129.482 12.7734V0.688477H132.729V12.7734C132.729 14.4336 133.071 15.6706 133.755 16.4844C134.438 17.2819 135.391 17.6807 136.611 17.6807C137.865 17.6807 138.833 17.2656 139.517 16.4355C140.2 15.5892 140.542 14.3685 140.542 12.7734V0.688477H143.765V12.7734C143.765 15.2311 143.162 17.1273 141.958 18.4619C140.754 19.7803 138.971 20.4395 136.611 20.4395C134.333 20.4395 132.575 19.7965 131.338 18.5107C130.101 17.2249 129.482 15.3125 129.482 12.7734ZM155.845 12.627H161.606L159.971 7.62207C159.857 7.264 159.727 6.86523 159.58 6.42578C159.45 5.98633 159.303 5.50618 159.141 4.98535C158.994 4.44824 158.88 4.04948 158.799 3.78906H158.652C158.604 3.95182 158.213 5.22949 157.48 7.62207L155.845 12.627ZM149.985 20L156.968 0.688477H160.508L167.466 20H164.048L162.461 15.2148H154.99L153.403 20H149.985ZM174.541 20V0.688477H177.764V17.2656H186.504V20H174.541ZM207.344 13.1641H214.229L212.08 7.01172C211.95 6.63737 211.738 6.04329 211.445 5.22949C211.169 4.39941 210.973 3.82161 210.859 3.49609H210.713C210.029 5.49805 209.631 6.66992 209.517 7.01172L207.344 13.1641ZM202.754 20L209.59 1.71387H211.982L218.818 20H216.67L214.814 14.7266H206.758L204.902 20H202.754ZM224.99 10.8691C224.99 8.03711 225.698 5.73405 227.114 3.95996C228.547 2.1696 230.492 1.27441 232.949 1.27441C233.779 1.27441 234.552 1.40462 235.269 1.66504C235.985 1.90918 236.579 2.24284 237.051 2.66602C237.539 3.08919 237.938 3.50423 238.247 3.91113C238.573 4.30176 238.841 4.7168 239.053 5.15625L237.393 5.74219C236.237 3.87044 234.756 2.93457 232.949 2.93457C231.077 2.93457 229.613 3.66699 228.555 5.13184C227.513 6.5804 226.992 8.49284 226.992 10.8691C226.992 13.3431 227.529 15.2799 228.604 16.6797C229.678 18.0632 231.094 18.7549 232.852 18.7549C234.447 18.7549 235.675 18.234 236.538 17.1924C237.401 16.1507 237.832 14.9219 237.832 13.5059V11.7969H232.656V10.1367H239.736V20H238.32L238.174 17.3145C237.214 19.3978 235.423 20.4395 232.803 20.4395C230.475 20.4395 228.587 19.585 227.139 17.876C225.706 16.167 224.99 13.8314 224.99 10.8691ZM248.984 20V1.71387H260.41V3.37402H250.938V9.72168H259.482V11.3574H250.938V18.3398H260.605V20H248.984ZM269.121 20V1.71387H271.367L278.105 13.3838L280.303 17.2412H280.449C280.254 15.7275 280.156 14.0023 280.156 12.0654V1.71387H282.109V20H279.863L273.101 8.25684L270.928 4.49707H270.83C270.993 6.12467 271.074 7.8418 271.074 9.64844V20H269.121ZM290.918 10.8691C290.918 7.89062 291.642 5.54688 293.091 3.83789C294.539 2.12891 296.419 1.27441 298.73 1.27441C300.163 1.27441 301.375 1.67318 302.368 2.4707C303.377 3.25195 304.134 4.18783 304.639 5.27832L302.979 5.86426C301.888 3.91113 300.456 2.93457 298.682 2.93457C296.924 2.93457 295.524 3.65885 294.482 5.10742C293.441 6.53971 292.92 8.46029 292.92 10.8691C292.92 13.3105 293.449 15.2393 294.507 16.6553C295.565 18.055 296.956 18.7549 298.682 18.7549C299.772 18.7549 300.724 18.4538 301.538 17.8516C302.352 17.2331 302.962 16.4762 303.369 15.5811L305.127 16.1426C304.574 17.3307 303.768 18.348 302.71 19.1943C301.652 20.0244 300.326 20.4395 298.73 20.4395C296.436 20.4395 294.556 19.5931 293.091 17.9004C291.642 16.1914 290.918 13.8477 290.918 10.8691ZM310.591 1.71387H312.935L316.084 7.30469C316.816 8.60677 317.459 9.75423 318.013 10.7471H318.062C318.306 10.3076 318.68 9.64844 319.185 8.76953C319.689 7.89062 319.966 7.40234 320.015 7.30469L323.14 1.71387H325.483L319.038 12.4805V20H317.085V12.4805L310.591 1.71387Z" fill="black"/>
</svg>
