<svg width="201" height="25" viewBox="0 0 201 25" fill="none" xmlns="http://www.w3.org/2000/svg">
<path d="M0 24L7.264 4.192C7.62667 3.21067 8.224 2.47467 9.056 1.984C9.888 1.472 10.8267 1.216 11.872 1.216C12.9173 1.216 13.856 1.46133 14.688 1.952C15.52 2.42133 16.1173 3.15733 16.48 4.16L23.776 24H17.984L16.576 19.68H7.072L5.6 24H0ZM8.448 15.232H15.2L12.352 6.304C12.3093 6.176 12.2453 6.09067 12.16 6.048C12.096 5.984 12.0107 5.952 11.904 5.952C11.7973 5.952 11.7013 5.984 11.616 6.048C11.552 6.112 11.5093 6.19733 11.488 6.304L8.448 15.232ZM25.6693 24V20.064H33.5733C33.7866 20.064 33.9786 20.0213 34.1493 19.936C34.3199 19.8293 34.4586 19.6907 34.5653 19.52C34.6719 19.3493 34.7253 19.168 34.7253 18.976C34.7253 18.7627 34.6719 18.5707 34.5653 18.4C34.4586 18.2293 34.3199 18.1013 34.1493 18.016C33.9786 17.9093 33.7866 17.856 33.5733 17.856H30.6933C29.6266 17.856 28.6559 17.6853 27.7812 17.344C26.9279 16.9813 26.2453 16.4267 25.7333 15.68C25.2426 14.912 24.9973 13.92 24.9973 12.704C24.9973 11.7653 25.2213 10.912 25.6693 10.144C26.1386 9.376 26.7679 8.75733 27.5573 8.288C28.3679 7.81867 29.2533 7.584 30.2133 7.584H38.1173V11.552H30.9813C30.6826 11.552 30.4266 11.648 30.2133 11.84C30.0213 12.032 29.9253 12.2667 29.9253 12.544C29.9253 12.8427 30.0213 13.0987 30.2133 13.312C30.4266 13.504 30.6826 13.6 30.9813 13.6H33.7973C34.9919 13.6 36.0159 13.7813 36.8693 14.144C37.7439 14.4853 38.4159 15.04 38.8853 15.808C39.3759 16.576 39.6213 17.568 39.6213 18.784C39.6213 19.744 39.3759 20.6187 38.8853 21.408C38.4159 22.1973 37.7759 22.8267 36.9653 23.296C36.1759 23.7653 35.2799 24 34.2773 24H25.6693ZM48.1533 24C46.6386 24 45.4546 23.5733 44.6013 22.72C43.7479 21.8453 43.3213 20.672 43.3213 19.2V3.584H48.3133V18.912C48.3133 19.168 48.3986 19.392 48.5693 19.584C48.7613 19.7547 48.9853 19.84 49.2413 19.84H52.8253V24H48.1533ZM40.6333 11.648V7.584H52.8253V11.648H40.6333ZM55.728 24V12.416C55.728 10.9227 56.1547 9.74933 57.008 8.896C57.8613 8.04267 59.0453 7.616 60.56 7.616H65.328V11.648H61.776C61.4773 11.648 61.2213 11.7547 61.008 11.968C60.7947 12.16 60.688 12.416 60.688 12.736V24H55.728ZM75.6715 24.384C73.9862 24.384 72.4715 24.0107 71.1275 23.264C69.7835 22.5173 68.7168 21.4933 67.9275 20.192C67.1595 18.8907 66.7755 17.4293 66.7755 15.808C66.7755 14.1653 67.1595 12.704 67.9275 11.424C68.7168 10.1227 69.7835 9.09867 71.1275 8.352C72.4715 7.584 73.9862 7.2 75.6715 7.2C77.3568 7.2 78.8608 7.584 80.1835 8.352C81.5275 9.09867 82.5835 10.1227 83.3515 11.424C84.1408 12.704 84.5355 14.1653 84.5355 15.808C84.5355 17.4293 84.1408 18.8907 83.3515 20.192C82.5835 21.4933 81.5275 22.5173 80.1835 23.264C78.8395 24.0107 77.3355 24.384 75.6715 24.384ZM75.6715 20.064C76.4608 20.064 77.1435 19.872 77.7195 19.488C78.2955 19.104 78.7435 18.592 79.0635 17.952C79.3835 17.312 79.5435 16.5867 79.5435 15.776C79.5435 14.9867 79.3835 14.272 79.0635 13.632C78.7435 12.992 78.2955 12.48 77.7195 12.096C77.1435 11.712 76.4608 11.52 75.6715 11.52C74.8822 11.52 74.1888 11.712 73.5915 12.096C73.0155 12.48 72.5675 12.992 72.2475 13.632C71.9275 14.272 71.7675 14.9867 71.7675 15.776C71.7675 16.5867 71.9275 17.312 72.2475 17.952C72.5675 18.592 73.0155 19.104 73.5915 19.488C74.1888 19.872 74.8822 20.064 75.6715 20.064ZM105.66 24C104.294 24 103.089 23.7013 102.044 23.104C101.02 22.4853 100.209 21.664 99.6115 20.64C99.0355 19.616 98.7475 18.4747 98.7475 17.216V6.08H92.6675V1.6H110.172V6.08H104.124V17.696C104.124 18.1867 104.294 18.6133 104.636 18.976C104.977 19.3387 105.404 19.52 105.916 19.52H107.676V24H105.66ZM107.916 24V12.416C107.916 10.9227 108.342 9.74933 109.196 8.896C110.049 8.04267 111.233 7.616 112.748 7.616H117.516V11.648H113.964C113.665 11.648 113.409 11.7547 113.196 11.968C112.982 12.16 112.876 12.416 112.876 12.736V24H107.916ZM126.323 24.384C124.872 24.384 123.592 24.0107 122.483 23.264C121.374 22.5173 120.51 21.5147 119.891 20.256C119.272 18.976 118.963 17.536 118.963 15.936C118.963 14.272 119.326 12.7893 120.051 11.488C120.776 10.1653 121.8 9.12 123.123 8.352C124.467 7.584 126.046 7.2 127.859 7.2C129.694 7.2 131.251 7.584 132.531 8.352C133.832 9.09867 134.824 10.1333 135.507 11.456C136.211 12.7573 136.563 14.2187 136.563 15.84V24H131.699V21.376H131.571C131.272 21.952 130.888 22.4747 130.419 22.944C129.95 23.392 129.374 23.744 128.691 24C128.03 24.256 127.24 24.384 126.323 24.384ZM127.795 20.096C128.542 20.096 129.192 19.9147 129.747 19.552C130.323 19.168 130.76 18.6453 131.059 17.984C131.358 17.3227 131.507 16.5867 131.507 15.776C131.507 14.9867 131.358 14.272 131.059 13.632C130.76 12.992 130.323 12.4907 129.747 12.128C129.192 11.744 128.542 11.552 127.795 11.552C127.027 11.552 126.355 11.744 125.779 12.128C125.203 12.4907 124.766 12.992 124.467 13.632C124.168 14.272 124.019 14.9867 124.019 15.776C124.019 16.5867 124.168 17.3227 124.467 17.984C124.766 18.6453 125.203 19.168 125.779 19.552C126.355 19.9147 127.027 20.096 127.795 20.096ZM148.295 24C146.588 24 145.074 23.648 143.751 22.944C142.428 22.2187 141.383 21.248 140.615 20.032C139.847 18.7947 139.463 17.3867 139.463 15.808C139.463 14.2293 139.847 12.832 140.615 11.616C141.383 10.3787 142.428 9.39733 143.751 8.672C145.074 7.94667 146.588 7.584 148.295 7.584H150.759V11.776H148.487C147.655 11.776 146.94 11.9573 146.343 12.32C145.746 12.6613 145.276 13.1413 144.935 13.76C144.615 14.3573 144.455 15.04 144.455 15.808C144.455 16.576 144.615 17.2693 144.935 17.888C145.276 18.4853 145.746 18.9653 146.343 19.328C146.94 19.6693 147.655 19.84 148.487 19.84H150.759V24H148.295ZM153.512 24V0.639999H158.472V13.792H160.648L164.392 7.584H169.928L165.512 14.432C166.792 14.9653 167.784 15.7867 168.488 16.896C169.214 17.984 169.576 19.264 169.576 20.736V24H164.584V20.736C164.584 20.1387 164.435 19.6053 164.136 19.136C163.859 18.6453 163.486 18.2613 163.016 17.984C162.547 17.7067 162.014 17.568 161.416 17.568H158.472V24H153.512ZM181.338 24C179.482 24 177.85 23.6587 176.442 22.976C175.034 22.272 173.936 21.312 173.146 20.096C172.378 18.8587 171.994 17.4293 171.994 15.808C171.994 14.016 172.368 12.48 173.114 11.2C173.861 9.92 174.853 8.93867 176.09 8.256C177.349 7.552 178.736 7.2 180.25 7.2C181.978 7.2 183.418 7.56267 184.57 8.288C185.744 9.01333 186.629 10.0053 187.226 11.264C187.824 12.5013 188.122 13.92 188.122 15.52C188.122 15.7973 188.101 16.128 188.058 16.512C188.037 16.8747 188.005 17.1627 187.962 17.376H177.21C177.338 17.9307 177.584 18.4 177.946 18.784C178.309 19.168 178.768 19.456 179.322 19.648C179.877 19.8187 180.496 19.904 181.178 19.904H186.202V24H181.338ZM177.082 14.272H183.322C183.28 13.9307 183.216 13.6 183.13 13.28C183.045 12.96 182.906 12.6827 182.714 12.448C182.544 12.192 182.341 11.9787 182.106 11.808C181.872 11.616 181.594 11.4667 181.274 11.36C180.976 11.2533 180.634 11.2 180.25 11.2C179.76 11.2 179.322 11.2853 178.938 11.456C178.554 11.6267 178.234 11.8613 177.978 12.16C177.722 12.4373 177.52 12.768 177.37 13.152C177.242 13.5147 177.146 13.888 177.082 14.272ZM190.884 24V12.416C190.884 10.9227 191.311 9.74933 192.164 8.896C193.018 8.04267 194.202 7.616 195.716 7.616H200.484V11.648H196.932C196.634 11.648 196.378 11.7547 196.164 11.968C195.951 12.16 195.844 12.416 195.844 12.736V24H190.884Z" fill="black"/>
</svg>
